<svg xmlns="http://www.w3.org/2000/svg" width="18.866" height="25.155" viewBox="0 0 18.866 25.155"><defs><style>.a{fill:#fff;}</style></defs><g transform="translate(-64)"><g transform="translate(64)"><path class="a" d="M82.342,9.433H80.77v-2.1a7.337,7.337,0,0,0-14.674,0v2.1H64.524A.524.524,0,0,0,64,9.957v13.1a2.1,2.1,0,0,0,2.1,2.1H80.77a2.1,2.1,0,0,0,2.1-2.1V9.957A.524.524,0,0,0,82.342,9.433ZM75,20.38a.524.524,0,0,1-.521.582h-2.1a.524.524,0,0,1-.521-.582l.331-2.973a2.073,2.073,0,0,1-.858-1.686,2.1,2.1,0,0,1,4.192,0,2.073,2.073,0,0,1-.858,1.686ZM77.625,9.433H69.241v-2.1a4.192,4.192,0,1,1,8.385,0Z" transform="translate(-64)"/></g></g></svg>