<svg xmlns="http://www.w3.org/2000/svg" xmlns:xlink="http://www.w3.org/1999/xlink" width="144.654" height="65.806" viewBox="0 0 144.654 65.806"><defs><style>.a,.c{fill:#fff;}.b{clip-path:url(#a);}.c{fill-rule:evenodd;}</style><clipPath id="a"><path class="a" d="M373.638-719.033H518.292v-65.806H373.638Z" transform="translate(-373.638 784.838)"/></clipPath></defs><g transform="translate(-81.395 -247.88)"><g transform="translate(81.395 247.88)"><g class="b" transform="translate(0 0)"><g transform="translate(57.752 35.174)"><path class="a" d="M-4.743-2.052a5.159,5.159,0,0,1,5.3,5.395c0,3.836-2.791,6.87-6.318,6.87-3.216,0-5.306-2.174-5.306-5.551A6.406,6.406,0,0,1-4.743-2.052M-6.1,15.579a12.369,12.369,0,0,0,9.724-4.292A12.652,12.652,0,0,0,6.664,2.831c0-6.012-4.39-10.245-11.042-10.245a12.557,12.557,0,0,0-9.754,4.261,12.741,12.741,0,0,0-3,8.464,10.145,10.145,0,0,0,3.345,7.695A11.269,11.269,0,0,0-6.1,15.579" transform="translate(17.136 7.414)"/></g><g transform="translate(83.45 35.662)"><path class="a" d="M-1.327,0H5.358l4.63,10.822a20.071,20.071,0,0,1,1.258,3.586v-.547a21.769,21.769,0,0,1,.28-3.092L13.21,0h5.862L15.6,21.932H9.166L4.255,10.769a19.708,19.708,0,0,1-1.29-3.6v.617a23.616,23.616,0,0,1-.241,3.034L1.062,21.932H-4.793Z" transform="translate(4.793)"/></g><g transform="translate(109.216 35.139)"><path class="a" d="M-6.911-2.912a8.847,8.847,0,0,0-5.823-2.211C-16.356-5.123-19-2.33-19,1.623c0,3.53,2.027,5.589,5.675,5.589a12.7,12.7,0,0,0,5-1.141l-.923,5.673a17.352,17.352,0,0,1-5.39.743c-6.316,0-10.331-4.27-10.331-10.619a12.925,12.925,0,0,1,2.845-8.249c2.181-2.669,5.519-4.14,9.633-4.14A14.2,14.2,0,0,1-5.927-8.954Z" transform="translate(24.967 10.52)"/></g><g transform="translate(128.532 35.662)"><path class="a" d="M-1.326,0H11.338l-.79,5.025H3.737L3.15,8.648H9.529L8.765,13.37H2.419L1.07,21.932H-4.79Z" transform="translate(4.79)"/></g><g transform="translate(138.432 60.703)"><path class="a" d="M-.467-1.026a7.367,7.367,0,0,0-.591-1.1,8.214,8.214,0,0,1-.6-1.089l-.028-.115.241-.376c.051.112.222.425.519.954a8.491,8.491,0,0,1,.46.958,1.7,1.7,0,0,1,.133.638l0,.131Z" transform="translate(1.687 3.707)"/></g><g transform="translate(136.526 60.47)"><path class="a" d="M0-.91.3-.9l.313.012c.283,0,.423-.063.423-.194l-.019-.11A4.837,4.837,0,0,0,.528-2a5.3,5.3,0,0,1-.486-.816L0-2.992l.22-.295.554.4-.147.255.035.159a4.093,4.093,0,0,0,.362.645,4.161,4.161,0,0,1,.362.64l.1.4c0,.187-.119.3-.346.365a5.052,5.052,0,0,1-.93.054Z" transform="translate(0 3.287)"/></g><g transform="translate(132.908 62.177)"><path class="a" d="M-.651-.079c-.086,0-.15.11-.192.325a2,2,0,0,0,.6.264L-.2.386-.366.125l-.285-.2m-1.7.465h.526A.949.949,0,0,0-1.191.216L-1-.111l.28-.173a1.641,1.641,0,0,1,.549.25C.211.178.4.284.412.291a3.011,3.011,0,0,0,1.035.1l.2.535H1.109L.751.912.412.77q.021.323-.295.323A1.406,1.406,0,0,1-.478.9C-.5.894-.686.8-1.03.613L-1.292.88l-.325.058L-1.841.926l-.3,0Z" transform="translate(2.353 0.284)"/></g><g transform="translate(128.586 60.047)"><path class="a" d="M0-1.072l.3.012.554,0c.841,0,1.236-.063,1.183-.2-.03-.07-.182-.164-.467-.276-.484-.182-.755-.278-.788-.3a.96.96,0,0,1-.524-.416L.217-2.416c0-.486.827-.972,2.489-1.456a.755.755,0,0,1-.206.587A1.8,1.8,0,0,1,1.882-3c-.474.145-.8.259-1,.334C.528-2.516.369-2.4.4-2.341a3.889,3.889,0,0,0,.573.178c.437.115.671.182.713.2a7.708,7.708,0,0,1,1,.425,5.654,5.654,0,0,0,.806.332,3.58,3.58,0,0,0,1.045.133l.213.538H4.114A2.85,2.85,0,0,1,3.1-.913c-.325-.175-.652-.353-.986-.528l.22.463c0,.313-.418.467-1.248.467L.61-.52l-.4-.014Z" transform="translate(0 3.872)"/></g><g transform="translate(104.339 61.727)"><path class="a" d="M-8.731-.237l.168-.288.507.21.136-.318-.54-.224L-8.6-.578l-.517-.215-.126.344.507.213M-31.042,3.225l.166-.28.507.21.136-.32-.538-.222-.14.276-.51-.217-.124.346.5.208M-9.295.8l.309,0,.259,0,.369-.056L-8.109.5l.288.238.4.065L-6.817.8-7.032.263-7.31.275l-.213,0L-7.82.23l-.213-.22L-8.079,0A.889.889,0,0,1-8.853.28l-.318,0L-9.51.263-9.295.8Z" transform="translate(31.545 0.856)"/></g><g transform="translate(121.188 61.968)"><path class="a" d="M-1.024-.857-.9-1.175l.533.206L-.5-.619l-.524-.238m3-.823H1.72l-.206.014-.2,0a.919.919,0,0,1-.68-.264,5.867,5.867,0,0,1-2.16.437A4.032,4.032,0,0,1-2.8-1.68a1.259,1.259,0,0,1-.858-.69L-3.7-2.6l.152-.493.089.026-.047.337c.1.255.4.444.874.563a5.048,5.048,0,0,0,1.19.131A8.576,8.576,0,0,0-.33-2.1a1.154,1.154,0,0,0,.811-.381l.068.014a.744.744,0,0,0,.68.264l.28,0,.252-.012.21.538Z" transform="translate(3.701 3.096)"/></g><g transform="translate(117.207 60.703)"><path class="a" d="M-.47-1.026a8.553,8.553,0,0,0-.6-1.1,7.692,7.692,0,0,1-.6-1.089l-.03-.115.238-.376c.051.112.231.425.524.954.208.393.365.713.465.958a1.832,1.832,0,0,1,.126.638l-.007.131Z" transform="translate(1.697 3.707)"/></g><g transform="translate(115.302 60.47)"><path class="a" d="M0-.91.306-.9l.311.012c.283,0,.423-.063.423-.194l-.021-.11A5.384,5.384,0,0,0,.533-2,5.307,5.307,0,0,1,.04-2.812l-.033-.18.22-.295.542.4-.138.255.037.159a3.848,3.848,0,0,0,.36.645,5.043,5.043,0,0,1,.367.64l.089.4c0,.187-.115.3-.346.365a4.981,4.981,0,0,1-.93.054Z" transform="translate(0 3.287)"/></g><g transform="translate(112.311 62.113)"><path class="a" d="M-.542-.281h.22l-.22-.154L-.809-.512-.939-.4c.035.086.166.124.4.124M1.318.257H0L.012.493c0,.638-.28.963-.839.963a3.376,3.376,0,0,1-1.131-.273l.033-.051c.3.026.451.037.421.037A1.428,1.428,0,0,0-.589.89,1.7,1.7,0,0,0-.161.257,1.442,1.442,0,0,1-.916.126.592.592,0,0,1-1.1-.388c0-.416.11-.626.346-.626.159,0,.369.245.631.734H1.11Z" transform="translate(1.959 1.015)"/></g><g transform="translate(108.516 60.448)"><path class="a" d="M-.844-.728a.861.861,0,0,0-.83.479c.278-.014.559-.042.851-.079.458-.065.664-.136.629-.222L-.48-.688l-.365-.04m-2.207.5c.519,0,.853,0,.989-.012L-2.09-.593a4.381,4.381,0,0,0-.458-.76,3.483,3.483,0,0,1-.444-.755l-.033-.145.2-.379.54.414-.136.334.157.381a3.143,3.143,0,0,1,.229.4,3.636,3.636,0,0,1,.166.615A1.082,1.082,0,0,1-.823-1.256l.559.138.332.341.049.227C.116.017-.866.3-2.848.3Z" transform="translate(3.051 2.631)"/></g><g transform="translate(106.222 61.776)"><path class="a" d="M-.27-.129l.138-.337L.41-.239.279.091-.27-.129M-.976.605l.339.012.318,0A.884.884,0,0,0,.452.346L.506.353l.213.22.3.049.238,0L1.579.605l.206.538-.678.007-.4-.065L.426.846l-.252.248-.365.056-.259,0-.311,0L-.976.605Z" transform="translate(0.976 0.465)"/></g><g transform="translate(102.952 62.846)"><path class="a" d="M-1.414-.206H-2.532c-.306,0-.442.035-.416.119l.323.105A3.564,3.564,0,0,1-2.05.152a.578.578,0,0,1,.4.311l.026.091c0,.194-.227.358-.661.5a3.422,3.422,0,0,1-1.045.18,2.615,2.615,0,0,1-1.047-.2,1.156,1.156,0,0,1-.657-.61L-5.11,0A2.8,2.8,0,0,1-5.035-.54l.126.037a.74.74,0,0,0,0,.533.916.916,0,0,0,.617.517,2.552,2.552,0,0,0,.93.159A7.842,7.842,0,0,0-2.567.654c.435-.044.638-.112.6-.187L-2.076.43C-2.314.414-2.553.395-2.782.388A.6.6,0,0,1-3.315.082L-3.361-.14q0-.61,1.741-.6Z" transform="translate(5.11 0.743)"/></g><g transform="translate(98.945 60.47)"><path class="a" d="M0-.91.309-.9l.309.012c.283,0,.423-.063.423-.194l-.021-.11A4.833,4.833,0,0,0,.533-2a4.619,4.619,0,0,1-.486-.816l-.037-.18.22-.295.549.4-.152.255.042.159a4.377,4.377,0,0,0,.358.645,3.786,3.786,0,0,1,.369.64l.093.4c0,.187-.117.3-.351.365a5.03,5.03,0,0,1-.933.054Z" transform="translate(0 3.287)"/></g><g transform="translate(96.634 60.547)"><path class="a" d="M0-.88A3.845,3.845,0,0,0,.666-.9l.206-.208L.785-1.444a7.241,7.241,0,0,0-.32-.661c-.157-.3-.257-.519-.316-.666L.143-2.823l.124-.185L.435-3.18c.2.416.512,1.035.951,1.858l.192.278.367.164h.6l.208.538H2.155a.991.991,0,0,1-.633-.206L1.157-.969l.023.22L.982-.4a2.242,2.242,0,0,1-.774.054Z" transform="translate(0 3.18)"/></g><g transform="translate(91.462 62.478)"><path class="a" d="M0-.141.316-.13l.29,0A.841.841,0,0,0,1.349-.4h.042l.143.2.3.063a2.3,2.3,0,0,0,.559-.044l.3-.325.1.014.421.28L3.452-.3l.042-.2h.089l.388.3L4.42-.13l.722-.012h.236L5.591.4H4.523L4,.249,3.628-.085,3.541.186l-.3.152L2.915.249,2.693.06l-.2.264A.991.991,0,0,1,2.041.4.971.971,0,0,1,1.314.1L1.1.357.764.42.507.41.206.4Z" transform="translate(0 0.511)"/></g><g transform="translate(87.136 60.047)"><path class="a" d="M0-1.072l.3.012.542,0c.851,0,1.246-.063,1.187-.2-.026-.07-.182-.164-.463-.276-.493-.182-.755-.278-.8-.3a.981.981,0,0,1-.521-.416L.215-2.416q0-.729,2.5-1.456a.735.735,0,0,1-.215.587A1.753,1.753,0,0,1,1.877-3c-.47.145-.8.259-.989.334-.358.147-.524.259-.5.323a4.542,4.542,0,0,0,.58.178c.435.115.669.182.715.2a8.3,8.3,0,0,1,1,.425,5.33,5.33,0,0,0,.8.332,3.613,3.613,0,0,0,1.045.133l.213.538H4.116A2.881,2.881,0,0,1,3.1-.913c-.327-.175-.652-.353-.986-.528l.213.463c0,.313-.418.467-1.248.467L.61-.52.21-.534Z" transform="translate(0 3.872)"/></g><g transform="translate(82.071 60.569)"><path class="a" d="M-.646-.578-.959-.657-1.3-.816l-.028-.138c0-.2.147-.381.451-.519l.178.236c-.252.061-.372.117-.351.173l.206.1c.22.03.332.049.339.049l.238.192.023.1-.143.257-.351.112A2.472,2.472,0,0,1-1.4-.41l.435-.049c.231-.04.337-.079.32-.119M3.2.726l-.323,0a1.614,1.614,0,0,1-.652-.1A2.33,2.33,0,0,1,1.717.158a.8.8,0,0,1-.673.685,7.072,7.072,0,0,1-1.438.1A4.07,4.07,0,0,1-1.593.82,1.083,1.083,0,0,1-2.277.133l-.056-.3.091-.325.1.047,0,.29c.077.2.334.344.776.428A5.05,5.05,0,0,0-.379.366,12.123,12.123,0,0,0,.871.322c.362-.068.538-.222.538-.467L1.329-.484a5.989,5.989,0,0,0-.3-.643c-.157-.29-.264-.5-.325-.647l.054-.313a2.08,2.08,0,0,1,.594.79c.173.334.346.661.519.993.2.33.4.5.6.5H3Z" transform="translate(2.334 2.088)"/></g><g transform="translate(78.087 60.703)"><path class="a" d="M-.468-1.026a7.281,7.281,0,0,0-.6-1.1,8.048,8.048,0,0,1-.6-1.089l-.03-.115.234-.376c.058.112.234.425.524.954A8.263,8.263,0,0,1-.468-1.8a1.694,1.694,0,0,1,.131.638l-.012.131Z" transform="translate(1.69 3.707)"/></g><g transform="translate(76.181 60.47)"><path class="a" d="M0-.91.3-.9l.311.012c.285,0,.425-.063.425-.194l-.023-.11A4.727,4.727,0,0,0,.528-2,5.581,5.581,0,0,1,.04-2.812L0-2.992l.222-.295.547.4-.143.255.033.159a4.615,4.615,0,0,0,.358.645,3.84,3.84,0,0,1,.372.64l.093.4c0,.187-.115.3-.344.365A5.124,5.124,0,0,1,.2-.372Z" transform="translate(0 3.287)"/></g><g transform="translate(71.81 61.912)"><path class="a" d="M0-.358c.589,0,.949,0,1.078-.019a4.1,4.1,0,0,0,.9-.252,5.161,5.161,0,0,0-.865-.136,3.031,3.031,0,0,0-.526.077L.657-1.11a.589.589,0,0,1,.514-.182,2.748,2.748,0,0,1,.683.108c.351.077.587.124.7.138A9.789,9.789,0,0,0,3.6-1l.063.411-.5.035a1.253,1.253,0,0,0,.825.222l.346-.012.313-.014.2.538H4.006C3.392.18,3.025.054,2.926-.2l0-.355H2.716a1.176,1.176,0,0,0-.58.182l-.6.353a1.688,1.688,0,0,1-.785.2H.21Z" transform="translate(0 1.293)"/></g><g transform="translate(69.019 61.202)"><path class="a" d="M-1.18-.63h-.594a.91.91,0,0,1-.645-.355A3.312,3.312,0,0,1-2.909-1.7l-.3-.575-.2.362.026.131.243.4.241.4.028.117-.187.15A3.6,3.6,0,0,1-3.466-.7l-.4-.049-.273-.21h-.091a1.054,1.054,0,0,0,0,.57c.065.166.283.243.661.243A1.2,1.2,0,0,0-2.928-.27l.28-.374a1.793,1.793,0,0,0,.528.463,1.516,1.516,0,0,0,.612.1h.245l.29,0Z" transform="translate(4.262 2.275)"/></g><g transform="translate(66.263 61.912)"><path class="a" d="M-.288-.78-.141-1.1.39-.89l.131-.273.531.22L.9-.6.39-.815.247-.549-.288-.78m-.753-1.1.517.012c.61,0,.9-.042.86-.131L.154-2.136-.038-2.29l-.014-.049c0-.035.049-.192.133-.479a2.238,2.238,0,0,1,.528.683l.084.355c0,.222-.15.355-.446.4a9.105,9.105,0,0,1-1.073.033Z" transform="translate(1.041 2.818)"/></g><g transform="translate(63.461 61.202)"><path class="a" d="M-1.181-.63h-.594a.9.9,0,0,1-.647-.355,3.4,3.4,0,0,1-.5-.715l-.292-.575-.192.362.026.131.241.4.241.4.023.117-.178.15A3.759,3.759,0,0,1-3.469-.7l-.393-.049-.28-.21h-.084a.928.928,0,0,0,.009.57c.058.166.28.243.65.243A1.208,1.208,0,0,0-2.936-.27l.28-.374a1.771,1.771,0,0,0,.535.463,1.457,1.457,0,0,0,.605.1h.245l.3,0Z" transform="translate(4.266 2.275)"/></g><g transform="translate(60.704 61.912)"><path class="a" d="M-.29-.78-.147-1.1.388-.89l.131-.273.524.22L.9-.6.388-.815.241-.549-.29-.78m-.757-1.1.519.012c.61,0,.9-.042.865-.131L.147-2.136-.047-2.29l0-.049a4.28,4.28,0,0,1,.124-.479,2.293,2.293,0,0,1,.535.683l.077.355c0,.222-.145.355-.444.4a9.069,9.069,0,0,1-1.078.033Z" transform="translate(1.047 2.818)"/></g><g transform="translate(57.991 60.748)"><path class="a" d="M-.561-.734l-.3-.019L-1.1-.829l.15-.187.264-.136L-.5-.86l.051.068-.108.058m-.963-1.3.171-.285.507.208.124-.316-.521-.222-.124.255-.507-.189-.152.341.5.208M.979-.551H.444l-.4-.1-.2-.3c-.262-.437-.458-.76-.584-.977l-.145.115-.091.138L-.8-1.33a3.614,3.614,0,0,0-.474.264l-.21.374.049.2c.065.171.309.257.736.257L-.493-.4l.159-.21a2.1,2.1,0,0,0,.482.54,2.555,2.555,0,0,0,.813.061h.227L.979-.551Z" transform="translate(2.026 2.65)"/></g><g transform="translate(9.305 10.679)"><path class="c" d="M-8.042-11.652q-.684.344-1.4.636A79.672,79.672,0,0,0,12.055-25.875c.341-.39,1.033-1.152,1.374-1.545,2.9-2.915,6.468-6.622,9.163-9.74A14.554,14.554,0,0,1,25.331-39.6c.393-.339.863-.636.638-.161-.584.863-2.216,2.884-2.069,3.008a3.86,3.86,0,0,0,.7-.774c.157.131,1.452-.844,1.772-1.262.411-.344,2.527-2.693,2.889-3.1,1.045-1.232-1.047,3.156-2.3,4.895-.582.9.2.159.318.248-.7.8-.914,1.318-1.643,2.106.051.04-1.989,2.515-3.071,3.7,0,0-.4.358-1.484,1.533-.369.388-.407.353-.439.316l.07.072c-.444.313-1.1,1.157-1.517,1.5l.07.068c-.823.683-1.505,1.515-2.319,2.214l.07.072a4.585,4.585,0,0,0-.743.776l.077.072c-.355.4-1.222,1.05-1.15,1.124l-.07-.07c-1.582,1.438-2.775,2.517-3.988,3.579A64.5,64.5,0,0,1-.768-11.393c-.47.266-.982.453-.563.093-.46.278-.944.526-1.416.781-.951.5-.547.119-1.5.622-7.723,3.717-16.1,6.535-24.807,6.828,2.16-.206,3.756-.449,5.9-.741-.009-.051-.023-.152.517-.229a42.514,42.514,0,0,0,8.284-2.228c.5-.206.961-.5,2.457-1.078l-1.5.559-.051-.143c1.989-.764,4.443-1.788,6.334-2.749l-.065-.138.956-.46c.8-.76-4.4,1.809-6.949,2.541l-.065-.189.986-.367-.037-.1a56.136,56.136,0,0,1-8.546,2.494c.514-.1,1.54-.318,2.043-.467-.012-.051-.026-.1.479-.231a38.949,38.949,0,0,1-6.676,1.253c-.526.026-.019-.2,1.508-.472,1.545-.248,2.564-.472,4.086-.816l-.021-.093c-1.007.248-2.531.582-3.56.732-.521.051,1-.337.472-.292a9.987,9.987,0,0,1-1.54.2A38.344,38.344,0,0,0-18.979-7.1c.489-.185.982-.36.954-.46A21.584,21.584,0,0,0-12.275-9.8c.458-.245,2.845-1.194,4.233-1.854" transform="translate(29.056 42.097)"/></g><g transform="translate(0.012 -0.003)"><path class="c" d="M-12.449-18.461c-.715.348-1.416.657-2.146.961A129.429,129.429,0,0,0,18.83-39.867c.561-.563,1.683-1.69,2.218-2.265A169.546,169.546,0,0,0,35.115-57.024a52.36,52.36,0,0,1,3.672-4.065c.489-.591,1.075-1.15.75-.435-.72,1.367-3.083,4.535-2.943,4.649a8.548,8.548,0,0,0,.991-1.232c.168.131,1.884-1.587,2.312-2.27.51-.582,3.4-4.556,2.688-5.853-.259-.54-.189-.58.079-.283a2.9,2.9,0,0,1,.292,2.536A21.893,21.893,0,0,1,40.3-58.157c-.874,1.4.208.152.334.234-1,1.323-1.37,2.073-2.417,3.338.054.044-3.006,3.887-4.673,5.666,0,0-.568.591-2.249,2.356-.559.589-.6.554-.633.519l.075.07c-.647.507-1.7,1.751-2.321,2.277l.075.072c-1.222,1.08-2.328,2.27-3.546,3.352l.075.075a10.075,10.075,0,0,0-1.164,1.134l.063.075c-.552.589-1.842,1.6-1.776,1.669l-.065-.077c-2.433,2.162-4.289,3.74-6.15,5.315A114.05,114.05,0,0,1-2.225-19.695c-.7.416-1.473.7-.806.229l-2.15,1.173c-1.435.771-.788.243-2.239.989a124.047,124.047,0,0,1-18.2,7.092C-31.84-8.342-38.236-6.738-44.977-6.7a63.863,63.863,0,0,0,9.039-1.066c-.009-.051-.033-.15.781-.3a80.229,80.229,0,0,0,12.491-3.546c.76-.306,1.48-.7,3.756-1.531l-2.281.818-.051-.143c3.039-1.113,6.788-2.578,9.71-4.009l-.068-.138,1.461-.687c1.332-.949-6.687,2.8-10.563,3.943l-.065-.187,1.512-.545-.04-.1A116.788,116.788,0,0,1-32.32-10.2c.783-.178,2.335-.584,3.111-.8-.012-.049-.026-.1.746-.316a68.157,68.157,0,0,1-10.158,2.2c-.809.054-.026-.171,2.309-.645,2.349-.458,3.908-.816,6.222-1.426l-.028-.1c-1.538.411-3.852,1.019-5.425,1.267-.8.108,1.529-.467.734-.358-.776.161-1.557.313-2.349.4a70.692,70.692,0,0,0,7.746-1.765,4.9,4.9,0,0,0,1.48-.629A50.3,50.3,0,0,0-19-15.7c.7-.367,4.448-1.732,6.547-2.756" transform="translate(44.977 66.695)"/></g><g transform="translate(18.201 16.987)"><path class="c" d="M-3.731-5.673l-.678.358A65.681,65.681,0,0,0,6.317-12.772l.664-.79a55.688,55.688,0,0,0,4.457-4.4,3.658,3.658,0,0,1,1.286-.935c.2-.143.418-.25.463-.03-.1.414-.72,1.4-.584,1.517l.311-.374c.178.122.909-.313,1.012-.561a4.009,4.009,0,0,0,.888-1.977c.007-.383.337-.131.547.741a4.907,4.907,0,0,1-.3,2.457c-.22.566.224.138.355.2a13.345,13.345,0,0,1-.8,1.3,11.844,11.844,0,0,1-1.61,2.043s-.224.175-.827.757l-.264.124.063.068c-.266.122-.6.563-.841.711l.065.077c-.477.292-.83.718-1.276,1.035l.068.077c-.217.175-.425.346-.4.386l.063.079-.6.552-.068-.077c-.858.671-1.475,1.194-2.1,1.713A34.3,34.3,0,0,1,.794-4.1c-.234.136-.521.18-.337-.04l-.7.4c-.467.271-.306,0-.776.264C-5-1.7-8.4.713-13.481,1.215A18.506,18.506,0,0,0-10.25.472c-.021-.051-.044-.147.224-.231A18.3,18.3,0,0,0-6.045-1.515a4.895,4.895,0,0,1,1.122-.76l-.722.351-.063-.136c.942-.5,2.106-1.148,3.013-1.695l-.077-.133.47-.252c.295-.556-2.23.86-3.455,1.367l-.084-.18.472-.227-.044-.1A42.9,42.9,0,0,1-9.5-1.5c.245-.093.734-.28.979-.381-.023-.044-.04-.086.2-.189a15.761,15.761,0,0,1-3.209,1.064c-.264.007-.042-.175.673-.46.732-.229,1.22-.407,1.945-.694l-.042-.091a12.879,12.879,0,0,1-1.685.617c-.262.03.428-.311.173-.276a2.9,2.9,0,0,1-.736.18,16.9,16.9,0,0,0,2.4-.848c.215-.147.432-.3.4-.386a7.6,7.6,0,0,0,2.648-1.6A19.187,19.187,0,0,1-3.731-5.673" transform="translate(13.481 20.495)"/></g></g></g></g></svg>