<svg xmlns="http://www.w3.org/2000/svg" width="27.746" height="21.134" viewBox="0 0 27.746 21.134"><defs><style>.a{fill:#fff;}</style></defs><g transform="translate(0 -61)"><g transform="translate(1.394 61)"><path class="a" d="M49.634,61H26.766a2.41,2.41,0,0,0-1.045.244L38.146,73.669l2.785-2.676h0l9.748-9.748A2.41,2.41,0,0,0,49.634,61Z" transform="translate(-25.721 -61)"/></g><g transform="translate(18.328 62.394)"><g transform="translate(0 0)"><path class="a" d="M347.387,86.728,338.213,95.9l9.173,9.173a2.41,2.41,0,0,0,.244-1.045V87.772A2.411,2.411,0,0,0,347.387,86.728Z" transform="translate(-338.213 -86.728)"/></g></g><g transform="translate(0 62.394)"><g transform="translate(0 0)"><path class="a" d="M.244,86.721A2.41,2.41,0,0,0,0,87.766v16.257a2.411,2.411,0,0,0,.244,1.044l9.174-9.173Z" transform="translate(0 -86.721)"/></g></g><g transform="translate(1.393 72.717)"><path class="a" d="M41.5,277.211l-2.785,2.677a.813.813,0,0,1-1.149,0l-2.677-2.677-9.174,9.173a2.41,2.41,0,0,0,1.045.245H49.628a2.41,2.41,0,0,0,1.045-.244Z" transform="translate(-25.714 -277.211)"/></g></g></svg>